<svg width="21" height="21" viewBox="0 0 21 21" fill="none" xmlns="http://www.w3.org/2000/svg">
<path d="M7.38164 19.9393C8.20955 19.9393 8.88071 19.2753 8.88071 18.4562C8.88071 17.6371 8.20955 16.9731 7.38164 16.9731C6.55372 16.9731 5.88257 17.6371 5.88257 18.4562C5.88257 19.2753 6.55372 19.9393 7.38164 19.9393Z" fill="white"/>
<path d="M16.4893 19.9393C17.3173 19.9393 17.9884 19.2753 17.9884 18.4562C17.9884 17.6371 17.3173 16.9731 16.4893 16.9731C15.6614 16.9731 14.9903 17.6371 14.9903 18.4562C14.9903 19.2753 15.6614 19.9393 16.4893 19.9393Z" fill="white"/>
<path d="M20.5402 2.3745C20.4782 2.29888 20.4 2.23779 20.3113 2.19562C20.2226 2.15345 20.1256 2.13125 20.0272 2.1306H9.06608C8.61737 2.1306 8.2998 2.56919 8.43984 2.99549C8.52872 3.26605 8.7813 3.44894 9.06608 3.44894H19.1544L17.3755 10.3814H7.38164L4.33685 1.8208C4.30392 1.71959 4.24673 1.62776 4.17016 1.55316C4.09359 1.47855 3.99992 1.42337 3.89713 1.39234L1.16548 0.56179C1.08149 0.536254 0.993233 0.527335 0.905756 0.535544C0.818278 0.543753 0.733291 0.568929 0.655647 0.609633C0.498839 0.691839 0.38146 0.832307 0.329333 1.00014C0.277206 1.16796 0.294601 1.34941 0.377691 1.50455C0.46078 1.65969 0.602759 1.77582 0.772393 1.82739L3.16425 2.55247L6.22236 11.1329L5.1297 12.0162L5.04308 12.1019C4.77281 12.41 4.61961 12.8018 4.60988 13.2096C4.60016 13.6175 4.7345 14.016 4.98978 14.3364C5.17138 14.5549 5.40213 14.7283 5.66359 14.8428C5.92505 14.9572 6.20996 15.0096 6.49552 14.9956H17.6153C17.792 14.9956 17.9615 14.9261 18.0864 14.8025C18.2114 14.6789 18.2816 14.5112 18.2816 14.3364C18.2816 14.1616 18.2114 13.9939 18.0864 13.8703C17.9615 13.7467 17.792 13.6773 17.6153 13.6773H6.38892C6.3122 13.6747 6.23745 13.6525 6.17189 13.613C6.10634 13.5735 6.05219 13.5179 6.01468 13.4517C5.97717 13.3854 5.95757 13.3107 5.95777 13.2347C5.95797 13.1588 5.97796 13.0842 6.01582 13.0181L7.62149 11.6998H17.9085C18.0625 11.7035 18.213 11.6543 18.3345 11.5605C18.456 11.4668 18.5409 11.3343 18.5747 11.1856L20.6867 2.93479C20.707 2.83652 20.7043 2.73497 20.6789 2.63788C20.6535 2.54078 20.6061 2.4507 20.5402 2.3745Z" fill="white"/>
<path fill-rule="evenodd" clip-rule="evenodd" d="M20.0272 2.1306C20.1256 2.13125 20.2226 2.15345 20.3113 2.19562C20.4 2.23779 20.4782 2.29888 20.5402 2.3745C20.6061 2.4507 20.6535 2.54078 20.6789 2.63788C20.7043 2.73497 20.707 2.83652 20.6867 2.93479L18.5747 11.1856C18.5409 11.3343 18.456 11.4668 18.3345 11.5605C18.213 11.6543 18.0625 11.7035 17.9085 11.6998H7.62149L6.01582 13.0181C5.97796 13.0842 5.95797 13.1588 5.95777 13.2347C5.95757 13.3107 5.97717 13.3854 6.01468 13.4517C6.05219 13.5179 6.10634 13.5735 6.17189 13.613C6.23745 13.6525 6.3122 13.6747 6.38892 13.6773H17.6153C17.792 13.6773 17.9615 13.7467 18.0864 13.8703C18.2114 13.9939 18.2816 14.1616 18.2816 14.3364C18.2816 14.5112 18.2114 14.6789 18.0864 14.8025C17.9615 14.9261 17.792 14.9956 17.6153 14.9956H6.49552C6.20996 15.0096 5.92505 14.9572 5.66359 14.8428C5.40213 14.7283 5.17138 14.5549 4.98978 14.3364C4.7345 14.016 4.60016 13.6175 4.60988 13.2096C4.61961 12.8018 4.77281 12.41 5.04308 12.1019L5.1297 12.0162L6.22236 11.1329L3.16425 2.55247L0.772393 1.82739C0.602759 1.77582 0.46078 1.65969 0.377691 1.50455C0.294601 1.34941 0.277206 1.16796 0.329333 1.00014C0.38146 0.832307 0.498839 0.691839 0.655647 0.609633C0.733291 0.568929 0.818278 0.543753 0.905756 0.535544C0.993233 0.527335 1.08149 0.536254 1.16548 0.56179L3.89713 1.39234C3.99992 1.42337 4.09359 1.47855 4.17016 1.55316C4.24673 1.62776 4.30392 1.71959 4.33685 1.8208L7.38164 10.3814H17.3755L19.1544 3.44894H9.06608C8.7813 3.44894 8.52872 3.26605 8.43984 2.99549C8.2998 2.56919 8.61737 2.1306 9.06608 2.1306H20.0272ZM18.7805 3.74556H9.06305C8.65012 3.74556 8.28387 3.48037 8.155 3.08806C7.95195 2.46993 8.41242 1.83398 9.06305 1.83398H20.0291C20.1718 1.83492 20.3125 1.86712 20.4412 1.92826C20.5686 1.98885 20.681 2.07636 20.7705 2.18462C20.8648 2.29449 20.9327 2.42403 20.9692 2.56355C21.006 2.70434 21.0099 2.85158 20.9805 2.99407L20.9792 3.00031L18.8672 11.2508M18.7805 3.74556L17.135 10.0848H7.60136L4.62275 1.73146L4.62224 1.7299C4.57449 1.58314 4.49156 1.45 4.38054 1.34181C4.26959 1.23371 4.13387 1.15374 3.98495 1.10872L1.25356 0.278252C1.13193 0.241274 1.00412 0.228358 0.877446 0.240245C0.750772 0.252132 0.627705 0.288588 0.515271 0.34753C0.288201 0.46657 0.118228 0.669977 0.0427445 0.913005C-0.0327391 1.15603 -0.00755033 1.41878 0.11277 1.64343C0.23309 1.86808 0.438685 2.03625 0.684326 2.11093L2.92591 2.79046L5.87513 11.0305L4.92834 11.7959L4.82359 11.8995L4.81664 11.9074C4.50064 12.2677 4.32153 12.7258 4.31015 13.2027C4.29878 13.6795 4.45585 14.1454 4.75432 14.52L4.75821 14.5248C4.96952 14.7791 5.23803 14.9808 5.54228 15.114C5.84417 15.2462 6.17293 15.3072 6.50264 15.2922H17.6153C17.8715 15.2922 18.1173 15.1915 18.2984 15.0123C18.4796 14.833 18.5814 14.5899 18.5814 14.3364C18.5814 14.0829 18.4796 13.8398 18.2984 13.6606C18.1172 13.4813 17.8715 13.3806 17.6153 13.3806H6.39542C6.37154 13.3792 6.34835 13.3721 6.32789 13.3597C6.30637 13.3467 6.28859 13.3285 6.27627 13.3067C6.26395 13.285 6.25752 13.2604 6.25758 13.2355C6.25761 13.2241 6.25901 13.2127 6.26172 13.2017L7.72969 11.9964H17.9051C18.1271 12.0008 18.3438 11.9296 18.5189 11.7944C18.695 11.6586 18.8181 11.4663 18.8672 11.2508M9.18053 18.4562C9.18053 19.4391 8.37514 20.236 7.38164 20.236C6.38814 20.236 5.58275 19.4391 5.58275 18.4562C5.58275 17.4733 6.38814 16.6765 7.38164 16.6765C8.37514 16.6765 9.18053 17.4733 9.18053 18.4562ZM18.2882 18.4562C18.2882 19.4391 17.4828 20.236 16.4893 20.236C15.4958 20.236 14.6905 19.4391 14.6905 18.4562C14.6905 17.4733 15.4958 16.6765 16.4893 16.6765C17.4828 16.6765 18.2882 17.4733 18.2882 18.4562ZM7.38164 19.9393C8.20955 19.9393 8.88071 19.2753 8.88071 18.4562C8.88071 17.6371 8.20955 16.9731 7.38164 16.9731C6.55372 16.9731 5.88257 17.6371 5.88257 18.4562C5.88257 19.2753 6.55372 19.9393 7.38164 19.9393ZM16.4893 19.9393C17.3173 19.9393 17.9884 19.2753 17.9884 18.4562C17.9884 17.6371 17.3173 16.9731 16.4893 16.9731C15.6614 16.9731 14.9903 17.6371 14.9903 18.4562C14.9903 19.2753 15.6614 19.9393 16.4893 19.9393Z" fill="white"/>
</svg>
