<svg width="48" height="49" viewBox="0 0 48 49" fill="none" xmlns="http://www.w3.org/2000/svg">
<rect y="0.235962" width="48" height="48" rx="4" fill="#EDF2F6"/>
<path d="M20.3816 33.9393C21.2096 33.9393 21.8807 33.2753 21.8807 32.4562C21.8807 31.6371 21.2096 30.9731 20.3816 30.9731C19.5537 30.9731 18.8826 31.6371 18.8826 32.4562C18.8826 33.2753 19.5537 33.9393 20.3816 33.9393Z" fill="#2A5275"/>
<path d="M29.4893 33.9393C30.3173 33.9393 30.9884 33.2753 30.9884 32.4562C30.9884 31.6371 30.3173 30.9731 29.4893 30.9731C28.6614 30.9731 27.9903 31.6371 27.9903 32.4562C27.9903 33.2753 28.6614 33.9393 29.4893 33.9393Z" fill="#2A5275"/>
<path d="M33.5402 16.3745C33.4782 16.2989 33.4 16.2378 33.3113 16.1956C33.2226 16.1535 33.1256 16.1312 33.0272 16.1306H31.0661C30.6174 16.1306 30.2998 16.5692 30.4398 16.9955C30.5287 17.266 30.7813 17.4489 31.0661 17.4489H32.1544L30.3755 24.3814H20.3816L17.3369 15.8208C17.3039 15.7196 17.2467 15.6278 17.1702 15.5532C17.0936 15.4785 16.9999 15.4234 16.8971 15.3923L14.1655 14.5618C14.0815 14.5363 13.9932 14.5273 13.9058 14.5355C13.8183 14.5438 13.7333 14.5689 13.6556 14.6096C13.4988 14.6918 13.3815 14.8323 13.3293 15.0001C13.2772 15.168 13.2946 15.3494 13.3777 15.5045C13.4608 15.6597 13.6028 15.7758 13.7724 15.8274L16.1642 16.5525L19.2224 25.1329L18.1297 26.0162L18.0431 26.1019C17.7728 26.41 17.6196 26.8018 17.6099 27.2096C17.6002 27.6175 17.7345 28.016 17.9898 28.3364C18.1714 28.5549 18.4021 28.7283 18.6636 28.8428C18.9251 28.9572 19.21 29.0096 19.4955 28.9956H30.6153C30.792 28.9956 30.9615 28.9261 31.0864 28.8025C31.2114 28.6789 31.2816 28.5112 31.2816 28.3364C31.2816 28.1616 31.2114 27.9939 31.0864 27.8703C30.9615 27.7467 30.792 27.6773 30.6153 27.6773H19.3889C19.3122 27.6747 19.2374 27.6525 19.1719 27.613C19.1063 27.5735 19.0522 27.5179 19.0147 27.4517C18.9772 27.3854 18.9576 27.3107 18.9578 27.2347C18.958 27.1588 18.978 27.0842 19.0158 27.0181L20.6215 25.6998H30.9085C31.0625 25.7035 31.213 25.6543 31.3345 25.5605C31.456 25.4668 31.5409 25.3343 31.5747 25.1856L33.6867 16.9348C33.707 16.8365 33.7043 16.735 33.6789 16.6379C33.6535 16.5408 33.6061 16.4507 33.5402 16.3745Z" fill="#2A5275"/>
<path fill-rule="evenodd" clip-rule="evenodd" d="M33.0272 16.1306C33.1256 16.1312 33.2226 16.1535 33.3113 16.1956C33.4 16.2378 33.4782 16.2989 33.5402 16.3745C33.6061 16.4507 33.6535 16.5408 33.6789 16.6379C33.7043 16.735 33.707 16.8365 33.6867 16.9348L31.5747 25.1856C31.5409 25.3343 31.456 25.4668 31.3345 25.5605C31.213 25.6543 31.0625 25.7035 30.9085 25.6998H20.6215L19.0158 27.0181C18.978 27.0842 18.958 27.1588 18.9578 27.2347C18.9576 27.3107 18.9772 27.3854 19.0147 27.4517C19.0522 27.5179 19.1063 27.5735 19.1719 27.613C19.2374 27.6525 19.3122 27.6747 19.3889 27.6773H30.6153C30.792 27.6773 30.9615 27.7467 31.0864 27.8703C31.2114 27.9939 31.2816 28.1616 31.2816 28.3364C31.2816 28.5112 31.2114 28.6789 31.0864 28.8025C30.9615 28.9261 30.792 28.9956 30.6153 28.9956H19.4955C19.21 29.0096 18.9251 28.9572 18.6636 28.8428C18.4021 28.7283 18.1714 28.5549 17.9898 28.3364C17.7345 28.016 17.6002 27.6175 17.6099 27.2096C17.6196 26.8018 17.7728 26.41 18.0431 26.1019L18.1297 26.0162L19.2224 25.1329L16.1642 16.5525L13.7724 15.8274C13.6028 15.7758 13.4608 15.6597 13.3777 15.5045C13.2946 15.3494 13.2772 15.168 13.3293 15.0001C13.3815 14.8323 13.4988 14.6918 13.6556 14.6096C13.7333 14.5689 13.8183 14.5438 13.9058 14.5355C13.9932 14.5273 14.0815 14.5363 14.1655 14.5618L16.8971 15.3923C16.9999 15.4234 17.0936 15.4785 17.1702 15.5532C17.2467 15.6278 17.3039 15.7196 17.3369 15.8208L20.3816 24.3814H30.3755L32.1544 17.4489H31.0661C30.7813 17.4489 30.5287 17.266 30.4398 16.9955C30.2998 16.5692 30.6174 16.1306 31.0661 16.1306H33.0272ZM31.7805 17.7456H31.0631C30.6501 17.7456 30.2839 17.4804 30.155 17.0881C29.9519 16.4699 30.4124 15.834 31.0631 15.834H33.0291C33.1718 15.8349 33.3125 15.8671 33.4412 15.9283C33.5686 15.9888 33.681 16.0764 33.7705 16.1846C33.8648 16.2945 33.9327 16.424 33.9692 16.5636C34.006 16.7043 34.0099 16.8516 33.9805 16.9941L33.9792 17.0003L31.8672 25.2508M31.7805 17.7456L30.135 24.0848H20.6014L17.6228 15.7315L17.6222 15.7299C17.5745 15.5831 17.4916 15.45 17.3805 15.3418C17.2696 15.2337 17.1339 15.1537 16.9849 15.1087L14.2536 14.2783C14.1319 14.2413 14.0041 14.2284 13.8774 14.2402C13.7508 14.2521 13.6277 14.2886 13.5153 14.3475C13.2882 14.4666 13.1182 14.67 13.0427 14.913C12.9673 15.156 12.9924 15.4188 13.1128 15.6434C13.2331 15.8681 13.4387 16.0362 13.6843 16.1109L15.9259 16.7905L18.8751 25.0305L17.9283 25.7959L17.8236 25.8995L17.8166 25.9074C17.5006 26.2677 17.3215 26.7258 17.3102 27.2027C17.2988 27.6795 17.4559 28.1454 17.7543 28.52L17.7582 28.5248C17.9695 28.7791 18.238 28.9808 18.5423 29.114C18.8442 29.2462 19.1729 29.3072 19.5026 29.2922H30.6153C30.8715 29.2922 31.1173 29.1915 31.2984 29.0123C31.4796 28.833 31.5814 28.5899 31.5814 28.3364C31.5814 28.0829 31.4796 27.8398 31.2984 27.6606C31.1172 27.4813 30.8715 27.3806 30.6153 27.3806H19.3954C19.3715 27.3792 19.3484 27.3721 19.3279 27.3597C19.3064 27.3467 19.2886 27.3285 19.2763 27.3067C19.264 27.285 19.2575 27.2604 19.2576 27.2355C19.2576 27.2241 19.259 27.2127 19.2617 27.2017L20.7297 25.9964H30.9051C31.1271 26.0008 31.3438 25.9296 31.5189 25.7944C31.695 25.6586 31.8181 25.4663 31.8672 25.2508M22.1805 32.4562C22.1805 33.4391 21.3751 34.236 20.3816 34.236C19.3881 34.236 18.5828 33.4391 18.5828 32.4562C18.5828 31.4733 19.3881 30.6765 20.3816 30.6765C21.3751 30.6765 22.1805 31.4733 22.1805 32.4562ZM31.2882 32.4562C31.2882 33.4391 30.4828 34.236 29.4893 34.236C28.4958 34.236 27.6905 33.4391 27.6905 32.4562C27.6905 31.4733 28.4958 30.6765 29.4893 30.6765C30.4828 30.6765 31.2882 31.4733 31.2882 32.4562ZM20.3816 33.9393C21.2096 33.9393 21.8807 33.2753 21.8807 32.4562C21.8807 31.6371 21.2096 30.9731 20.3816 30.9731C19.5537 30.9731 18.8826 31.6371 18.8826 32.4562C18.8826 33.2753 19.5537 33.9393 20.3816 33.9393ZM29.4893 33.9393C30.3173 33.9393 30.9884 33.2753 30.9884 32.4562C30.9884 31.6371 30.3173 30.9731 29.4893 30.9731C28.6614 30.9731 27.9903 31.6371 27.9903 32.4562C27.9903 33.2753 28.6614 33.9393 29.4893 33.9393Z" fill="#2A5275"/>
<path d="M28.5 14.236L24.1875 18.736L22 16.9178" stroke="#2A5275" stroke-width="2" stroke-linecap="round" stroke-linejoin="round"/>
</svg>
