<svg width="17" height="21" viewBox="0 0 17 21" fill="none" xmlns="http://www.w3.org/2000/svg">
<path d="M1 10.236C0.734784 10.236 0.48043 10.3413 0.292893 10.5289C0.105357 10.7164 0 10.9707 0 11.236V19.236C0 19.5012 0.105357 19.7555 0.292893 19.9431C0.48043 20.1306 0.734784 20.236 1 20.236C1.26522 20.236 1.51957 20.1306 1.70711 19.9431C1.89464 19.7555 2 19.5012 2 19.236V11.236C2 10.9707 1.89464 10.7164 1.70711 10.5289C1.51957 10.3413 1.26522 10.236 1 10.236ZM6 0.235962C5.73478 0.235962 5.48043 0.341319 5.29289 0.528855C5.10536 0.716391 5 0.970745 5 1.23596V19.236C5 19.5012 5.10536 19.7555 5.29289 19.9431C5.48043 20.1306 5.73478 20.236 6 20.236C6.26522 20.236 6.51957 20.1306 6.70711 19.9431C6.89464 19.7555 7 19.5012 7 19.236V1.23596C7 0.970745 6.89464 0.716391 6.70711 0.528855C6.51957 0.341319 6.26522 0.235962 6 0.235962ZM16 14.236C15.7348 14.236 15.4804 14.3413 15.2929 14.5289C15.1054 14.7164 15 14.9707 15 15.236V19.236C15 19.5012 15.1054 19.7555 15.2929 19.9431C15.4804 20.1306 15.7348 20.236 16 20.236C16.2652 20.236 16.5196 20.1306 16.7071 19.9431C16.8946 19.7555 17 19.5012 17 19.236V15.236C17 14.9707 16.8946 14.7164 16.7071 14.5289C16.5196 14.3413 16.2652 14.236 16 14.236ZM11 6.23596C10.7348 6.23596 10.4804 6.34132 10.2929 6.52886C10.1054 6.71639 10 6.97075 10 7.23596V19.236C10 19.5012 10.1054 19.7555 10.2929 19.9431C10.4804 20.1306 10.7348 20.236 11 20.236C11.2652 20.236 11.5196 20.1306 11.7071 19.9431C11.8946 19.7555 12 19.5012 12 19.236V7.23596C12 6.97075 11.8946 6.71639 11.7071 6.52886C11.5196 6.34132 11.2652 6.23596 11 6.23596Z" fill="#2A5275"/>
</svg>
