<svg width="48" height="36" viewBox="0 0 48 36" fill="none" xmlns="http://www.w3.org/2000/svg">
<path d="M30.5808 12.0574H18.4192C17.0462 12.0574 16 12.8207 16 13.8226V22.6965C16 23.6983 17.0462 24.4617 18.4192 24.4617H30.5808C31.9538 24.4617 33 23.6983 33 22.6965V13.8226C33 12.8207 31.9538 12.0574 30.5808 12.0574ZM24.5 21.9808C27.3115 21.9808 29.6 20.3587 29.6 18.4027C29.6 18.0687 29.5346 17.687 29.4038 17.4008H30.8423V22.4579C30.8423 22.6965 30.5808 22.935 30.1885 22.935H18.8115C18.4846 22.935 18.1577 22.7442 18.1577 22.4579V17.3531H19.6615C19.5308 17.687 19.4654 18.021 19.4654 18.3549C19.4 20.3587 21.6885 21.9808 24.5 21.9808ZM24.5 20.5496C22.6692 20.5496 21.2308 19.5 21.2308 18.2118C21.2308 16.9237 22.6692 15.8741 24.5 15.8741C26.3308 15.8741 27.7692 16.9237 27.7692 18.2118C27.7692 19.5477 26.3308 20.5496 24.5 20.5496ZM30.7769 15.4447C30.7769 15.731 30.45 15.9695 30.0577 15.9695H28.2269C27.8346 15.9695 27.5077 15.731 27.5077 15.4447V14.1566C27.5077 13.8703 27.8346 13.6318 28.2269 13.6318H30.0577C30.45 13.6318 30.7769 13.8703 30.7769 14.1566V15.4447Z" fill="#4878A6"/>
</svg>
