<svg width="21" height="19" viewBox="0 0 21 19" fill="none" xmlns="http://www.w3.org/2000/svg">
<path d="M19.16 2.23601C18.1 1.17321 16.6948 0.524545 15.1984 0.407175C13.7019 0.289805 12.2128 0.711471 11 1.59601C9.72769 0.649643 8.14402 0.220517 6.56795 0.395043C4.99188 0.569569 3.54047 1.33478 2.506 2.53659C1.47154 3.7384 0.930854 5.28753 0.992833 6.87202C1.05481 8.45651 1.71485 9.95867 2.84003 11.076L9.05003 17.296C9.57005 17.8078 10.2704 18.0946 11 18.0946C11.7296 18.0946 12.43 17.8078 12.95 17.296L19.16 11.076C20.3276 9.90127 20.983 8.31228 20.983 6.65601C20.983 4.99973 20.3276 3.41074 19.16 2.23601Z" fill="#F15152"/>
</svg>
