<svg width="21" height="19" viewBox="0 0 21 19" fill="none" xmlns="http://www.w3.org/2000/svg">
<path d="M19.16 2.23601C18.1 1.17321 16.6948 0.524545 15.1984 0.407175C13.7019 0.289805 12.2128 0.711471 11 1.59601C9.72769 0.649643 8.14402 0.220517 6.56795 0.395043C4.99188 0.569569 3.54047 1.33478 2.506 2.53659C1.47154 3.7384 0.930854 5.28753 0.992833 6.87202C1.05481 8.45651 1.71485 9.95867 2.84003 11.076L9.05003 17.296C9.57005 17.8078 10.2704 18.0946 11 18.0946C11.7296 18.0946 12.43 17.8078 12.95 17.296L19.16 11.076C20.3276 9.90127 20.983 8.31228 20.983 6.65601C20.983 4.99973 20.3276 3.41074 19.16 2.23601ZM17.75 9.696L11.54 15.906C11.4694 15.9774 11.3853 16.034 11.2926 16.0727C11.1999 16.1113 11.1005 16.1312 11 16.1312C10.8996 16.1312 10.8002 16.1113 10.7075 16.0727C10.6148 16.034 10.5307 15.9774 10.46 15.906L4.25003 9.66601C3.46579 8.86435 3.02664 7.78747 3.02664 6.66601C3.02664 5.54454 3.46579 4.46766 4.25003 3.66601C5.04919 2.87699 6.127 2.43457 7.25003 2.43457C8.37306 2.43457 9.45088 2.87699 10.25 3.66601C10.343 3.75973 10.4536 3.83413 10.5755 3.8849C10.6973 3.93567 10.828 3.9618 10.96 3.9618C11.092 3.9618 11.2227 3.93567 11.3446 3.8849C11.4665 3.83413 11.5771 3.75973 11.67 3.66601C12.4692 2.87699 13.547 2.43457 14.67 2.43457C15.7931 2.43457 16.8709 2.87699 17.67 3.66601C18.4651 4.45716 18.9186 5.5282 18.9336 6.64969C18.9485 7.77119 18.5237 8.85394 17.75 9.66601V9.696Z" fill="#C8CACB"/>
</svg>
