<svg width="48" height="36" viewBox="0 0 48 36" fill="none" xmlns="http://www.w3.org/2000/svg">
<path d="M33.6 13.4437C32.9 13.6626 32.1 13.8086 31.3 13.8815C32.1 13.5167 32.8 12.933 33.1 12.2763C32.3 12.6411 31.5 12.86 30.5 13.0059C29.8 12.4222 28.7 12.0574 27.6 12.0574C25.4 12.0574 23.6 13.3708 23.6 14.976C23.6 15.1949 23.6 15.4138 23.7 15.6327C20.4 15.4868 17.4 14.3193 15.4 12.5681C15.1 13.0059 14.9 13.5167 14.9 14.0275C14.9 15.049 15.6 15.9246 16.7 16.4354C16 16.4354 15.4 16.2894 14.9 16.0705C14.9 17.4569 16.3 18.6973 18.1 18.9162C17.8 18.9892 17.4 18.9892 17 18.9892C16.7 18.9892 16.5 18.9892 16.2 18.9162C16.7 20.0837 18.2 20.9593 20 20.9593C18.6 21.7619 16.9 22.1997 15 22.1997C14.7 22.1997 14.4 22.1997 14 22.1268C15.8 22.9294 17.9 23.4402 20.2 23.4402C27.6 23.4402 31.6 18.9892 31.6 15.122V14.7571C32.4 14.5382 33.1 14.0275 33.6 13.4437Z" fill="#4878A6"/>
</svg>
