<svg width="48" height="36" viewBox="0 0 48 36" fill="none" xmlns="http://www.w3.org/2000/svg">
<path d="M33.8061 21.6272C33.8061 21.5667 33.7231 21.5667 33.7231 21.5061C33.391 21.0215 32.6438 20.4157 31.6475 19.7493C31.1494 19.4464 30.9003 19.2041 30.7343 19.0829C30.4852 18.8406 30.4852 18.6589 30.5683 18.4166C30.6513 18.2348 30.9834 17.9319 31.5645 17.3867C31.8966 17.0838 32.0626 16.9021 32.3117 16.7204C33.5571 15.5088 34.1382 14.7212 33.9722 14.3578L33.8892 14.2972C33.8061 14.2366 33.7231 14.176 33.5571 14.176C33.391 14.1155 33.142 14.1155 32.8929 14.176H29.738C29.655 14.176 29.655 14.176 29.4889 14.176C29.4059 14.176 29.3229 14.176 29.3229 14.176H29.2399H29.1569L29.0738 14.2366C28.9908 14.2972 28.9908 14.2972 28.9908 14.3578C28.6587 15.0241 28.2436 15.5693 27.8285 16.1751C27.5794 16.478 27.3303 16.7809 27.0813 17.0232C26.8322 17.2656 26.6662 17.4473 26.5001 17.5685C26.3341 17.6896 26.168 17.7502 26.085 17.8713C26.002 17.9319 25.8359 17.9925 25.8359 17.9319C25.7529 17.9319 25.6699 17.9319 25.6699 17.8713C25.5869 17.8108 25.5038 17.7502 25.4208 17.6896C25.3378 17.629 25.3378 17.5079 25.2548 17.3867C25.2548 17.2656 25.2548 17.1444 25.2548 17.0838C25.2548 17.0232 25.2548 16.8415 25.2548 16.7204C25.2548 16.5386 25.2548 16.4175 25.2548 16.3569C25.2548 16.1751 25.2548 15.9328 25.2548 15.6905C25.2548 15.4482 25.2548 15.2665 25.2548 15.1453C25.2548 15.0241 25.2548 14.8424 25.2548 14.7212C25.2548 14.5395 25.2548 14.4183 25.2548 14.3578C25.2548 14.2972 25.1718 14.176 25.1718 14.1155C25.0887 14.0549 25.0057 13.9943 24.9227 13.9337C24.8397 13.8731 24.6736 13.8731 24.5906 13.8126C24.1755 13.752 23.6773 13.6914 23.0962 13.6914C21.7678 13.6914 20.8546 13.752 20.5225 13.8731C20.3564 13.9337 20.1904 13.9943 20.1074 14.1155C19.9413 14.2366 19.9413 14.2972 20.0243 14.2972C20.4394 14.3578 20.7715 14.4789 20.9376 14.6607L21.0206 14.7818C21.1036 14.8424 21.1036 14.9636 21.1866 15.1453C21.2697 15.327 21.2697 15.5088 21.2697 15.7511C21.2697 16.1146 21.2697 16.478 21.2697 16.7204C21.2697 17.0232 21.1866 17.205 21.1866 17.3867C21.1866 17.5685 21.1036 17.6896 21.0206 17.7502C20.9376 17.8714 20.9376 17.9319 20.8546 17.9319C20.8546 17.9319 20.8546 17.9925 20.7715 17.9925C20.6885 17.9925 20.6055 18.0531 20.4394 18.0531C20.3564 18.0531 20.1904 17.9925 20.1074 17.9319C19.9413 17.8714 19.7753 17.7502 19.6922 17.629C19.5262 17.5079 19.3601 17.3261 19.1941 17.0838C19.0281 16.8415 18.779 16.5992 18.6129 16.2357L18.4469 15.9934C18.3639 15.8722 18.1978 15.6299 18.0318 15.327C17.8657 15.0241 17.6997 14.7818 17.5336 14.4789C17.4506 14.3578 17.3676 14.2972 17.2846 14.2366H17.2016C17.2016 14.2366 17.1185 14.176 17.0355 14.176C16.9525 14.176 16.8695 14.1155 16.7864 14.1155H13.7976C13.4655 14.1155 13.2995 14.176 13.2165 14.2366L13.1334 14.2972C13.1334 14.2972 13.1334 14.3578 13.1334 14.4184C13.1334 14.4789 13.1334 14.5395 13.2165 14.6607C13.6316 15.3876 14.1297 16.1146 14.6278 16.8415C15.126 17.5079 15.6241 18.1137 15.9562 18.5377C16.3713 18.9618 16.7034 19.3858 17.1185 19.7493C17.5336 20.1128 17.7827 20.3551 17.8657 20.4762C18.0318 20.5974 18.1148 20.658 18.1978 20.7186L18.4469 20.9003C18.6129 21.0215 18.862 21.2032 19.1941 21.3849C19.5262 21.5667 19.9413 21.7484 20.3564 21.9301C20.7715 22.1119 21.2697 22.233 21.7678 22.3542C22.349 22.4754 22.8471 22.5359 23.3452 22.4754H24.5906C24.8397 22.4754 25.0057 22.4148 25.1718 22.2936L25.2548 22.233C25.2548 22.1725 25.3378 22.1725 25.3378 22.1119C25.3378 22.0513 25.3378 21.9907 25.3378 21.8696C25.3378 21.6272 25.3378 21.4455 25.4208 21.2638C25.5038 21.082 25.5039 20.9609 25.5869 20.8397C25.6699 20.7186 25.7529 20.658 25.8359 20.5974C25.919 20.5368 26.002 20.4762 26.002 20.4762H26.085C26.251 20.4157 26.5001 20.4762 26.6662 20.5974C26.9152 20.7186 27.1643 20.9003 27.3303 21.082C27.4964 21.2638 27.7455 21.4455 28.0776 21.6878C28.4097 21.9301 28.6587 22.1119 28.8248 22.1725L29.0738 22.2936C29.2399 22.3542 29.4059 22.4148 29.655 22.4754C29.9041 22.5359 30.0701 22.5359 30.2361 22.5359L33.0589 22.4754C33.308 22.4754 33.5571 22.4148 33.7231 22.3542C33.8892 22.2936 33.9722 22.233 33.9722 22.1119C33.9722 22.0513 33.9722 21.9301 33.9722 21.8696C33.8061 21.7484 33.8061 21.6878 33.8061 21.6272Z" fill="#2A5275"/>
</svg>
